<svg xmlns="http://www.w3.org/2000/svg" viewBox="0 0 1600 1000" fill="none" role="img" aria-labelledby="title desc">
  <title id="title">ITS placeholder image</title>
  <desc id="desc">Neutral placeholder artwork used until final photography is restored.</desc>
  <rect width="1600" height="1000" fill="#EEF2F7"/>
  <rect width="1600" height="1000" fill="url(#bg)"/>
  <g opacity=".95">
    <circle cx="310" cy="250" r="230" fill="url(#glowA)"/>
    <circle cx="1300" cy="760" r="280" fill="url(#glowB)"/>
    <circle cx="1170" cy="210" r="140" fill="#D6E4F7"/>
  </g>
  <g opacity=".72" stroke="#D4DCE7">
    <path d="M0 710H1600"/>
    <path d="M0 560H1600"/>
    <path d="M0 410H1600"/>
    <path d="M0 260H1600"/>
    <path d="M250 0V1000"/>
    <path d="M520 0V1000"/>
    <path d="M790 0V1000"/>
    <path d="M1060 0V1000"/>
    <path d="M1330 0V1000"/>
  </g>
  <g>
    <rect x="160" y="170" width="1280" height="660" rx="40" fill="rgba(255,255,255,.72)" stroke="#D8E0EA"/>
    <rect x="230" y="248" width="220" height="18" rx="9" fill="#0B3D91" opacity=".72"/>
    <rect x="230" y="300" width="460" height="62" rx="18" fill="#062A56" opacity=".12"/>
    <rect x="230" y="390" width="720" height="20" rx="10" fill="#7C8CA3" opacity=".32"/>
    <rect x="230" y="428" width="640" height="20" rx="10" fill="#7C8CA3" opacity=".24"/>
    <rect x="230" y="466" width="540" height="20" rx="10" fill="#7C8CA3" opacity=".18"/>
    <rect x="230" y="552" width="220" height="64" rx="32" fill="#062A56"/>
    <rect x="470" y="552" width="220" height="64" rx="32" fill="#FFFFFF" stroke="#D8E0EA"/>
    <rect x="1020" y="260" width="270" height="220" rx="28" fill="#FFFFFF" stroke="#D8E0EA"/>
    <rect x="1060" y="314" width="150" height="16" rx="8" fill="#0B3D91" opacity=".72"/>
    <rect x="1060" y="352" width="170" height="16" rx="8" fill="#6B7280" opacity=".28"/>
    <rect x="1060" y="390" width="130" height="16" rx="8" fill="#6B7280" opacity=".2"/>
    <rect x="960" y="560" width="330" height="170" rx="28" fill="#082A59"/>
    <rect x="1006" y="606" width="160" height="16" rx="8" fill="#FFFFFF" opacity=".84"/>
    <rect x="1006" y="644" width="210" height="16" rx="8" fill="#FFFFFF" opacity=".48"/>
  </g>
  <defs>
    <linearGradient id="bg" x1="150" y1="80" x2="1480" y2="960" gradientUnits="userSpaceOnUse">
      <stop stop-color="#F8FAFC"/>
      <stop offset=".54" stop-color="#F1F5F9"/>
      <stop offset="1" stop-color="#E2E8F0"/>
    </linearGradient>
    <radialGradient id="glowA" cx="0" cy="0" r="1" gradientUnits="userSpaceOnUse" gradientTransform="translate(310 250) rotate(90) scale(230)">
      <stop stop-color="#0B3D91" stop-opacity=".22"/>
      <stop offset="1" stop-color="#0B3D91" stop-opacity="0"/>
    </radialGradient>
    <radialGradient id="glowB" cx="0" cy="0" r="1" gradientUnits="userSpaceOnUse" gradientTransform="translate(1300 760) rotate(90) scale(280)">
      <stop stop-color="#062A56" stop-opacity=".18"/>
      <stop offset="1" stop-color="#062A56" stop-opacity="0"/>
    </radialGradient>
  </defs>
</svg>
